<svg width="164" height="164" viewBox="0 0 164 164" fill="none" xmlns="http://www.w3.org/2000/svg">
<g opacity="0.4">
<path d="M12.241 71.4112C14.5655 74.1815 14.2042 78.3116 11.4339 80.6361C8.66362 82.9607 4.53347 82.5993 2.20894 79.8291C-0.115596 77.0588 0.245746 72.9286 3.01601 70.6041C5.78628 68.2796 9.91643 68.6409 12.241 71.4112Z" fill="url(#paint0_linear_110_3)"/>
<path d="M25.92 87.7132C28.2445 90.4835 27.8832 94.6137 25.1129 96.9382C22.3427 99.2627 18.2125 98.9014 15.888 96.1311C13.5634 93.3608 13.9248 89.2307 16.6951 86.9062C19.4653 84.5816 23.5955 84.943 25.92 87.7132Z" fill="url(#paint1_linear_110_3)"/>
<path d="M39.599 104.015C41.9236 106.786 41.5622 110.916 38.792 113.24C36.0217 115.565 31.8915 115.203 29.567 112.433C27.2425 109.663 27.6038 105.533 30.3741 103.208C33.1444 100.884 37.2745 101.245 39.599 104.015Z" fill="url(#paint2_linear_110_3)"/>
<path d="M53.2781 120.317C55.6026 123.088 55.2413 127.218 52.471 129.542C49.7007 131.867 45.5706 131.505 43.2461 128.735C40.9215 125.965 41.2829 121.835 44.0531 119.51C46.8234 117.186 50.9536 117.547 53.2781 120.317Z" fill="url(#paint3_linear_110_3)"/>
<path d="M66.9571 136.619C69.2817 139.39 68.9203 143.52 66.15 145.844C63.3798 148.169 59.2496 147.808 56.9251 145.037C54.6006 142.267 54.9619 138.137 57.7322 135.812C60.5024 133.488 64.6326 133.849 66.9571 136.619Z" fill="url(#paint4_linear_110_3)"/>
<path d="M80.6362 152.921C82.9607 155.692 82.5993 159.822 79.8291 162.146C77.0588 164.471 72.9287 164.11 70.6041 161.339C68.2796 158.569 68.6409 154.439 71.4112 152.114C74.1815 149.79 78.3116 150.151 80.6362 152.921Z" fill="url(#paint5_linear_110_3)"/>
<path d="M28.543 57.7322C30.8675 60.5024 30.5062 64.6326 27.7359 66.9571C24.9657 69.2816 20.8355 68.9203 18.511 66.15C16.1865 63.3798 16.5478 59.2496 19.3181 56.9251C22.0883 54.6005 26.2185 54.9619 28.543 57.7322Z" fill="url(#paint6_linear_110_3)"/>
<path d="M42.222 74.0342C44.5466 76.8045 44.1852 80.9346 41.415 83.2591C38.6447 85.5837 34.5146 85.2223 32.19 82.4521C29.8655 79.6818 30.2268 75.5517 32.9971 73.2271C35.7674 70.9026 39.8975 71.2639 42.222 74.0342Z" fill="url(#paint7_linear_110_3)"/>
<path d="M55.9011 90.3362C58.2256 93.1065 57.8643 97.2367 55.094 99.5612C52.3237 101.886 48.1936 101.524 45.8691 98.7541C43.5445 95.9838 43.9059 91.8537 46.6761 89.5292C49.4464 87.2046 53.5766 87.566 55.9011 90.3362Z" fill="url(#paint8_linear_110_3)"/>
<path d="M69.5801 106.638C71.9047 109.409 71.5433 113.539 68.773 115.863C66.0028 118.188 61.8726 117.826 59.5481 115.056C57.2236 112.286 57.5849 108.156 60.3552 105.831C63.1254 103.507 67.2556 103.868 69.5801 106.638Z" fill="url(#paint9_linear_110_3)"/>
<path d="M83.2592 122.94C85.5837 125.711 85.2224 129.841 82.4521 132.165C79.6818 134.49 75.5517 134.128 73.2271 131.358C70.9026 128.588 71.264 124.458 74.0342 122.133C76.8045 119.809 80.9346 120.17 83.2592 122.94Z" fill="url(#paint10_linear_110_3)"/>
<path d="M96.9382 139.242C99.2627 142.013 98.9014 146.143 96.1311 148.467C93.3609 150.792 89.2307 150.431 86.9062 147.66C84.5816 144.89 84.943 140.76 87.7133 138.435C90.4835 136.111 94.6137 136.472 96.9382 139.242Z" fill="url(#paint11_linear_110_3)"/>
<path d="M44.8451 44.0531C47.1696 46.8234 46.8082 50.9535 44.038 53.2781C41.2677 55.6026 37.1376 55.2413 34.813 52.471C32.4885 49.7007 32.8498 45.5706 35.6201 43.246C38.3904 40.9215 42.5205 41.2828 44.8451 44.0531Z" fill="url(#paint12_linear_110_3)"/>
<path d="M58.5241 60.3552C60.8486 63.1254 60.4873 67.2556 57.717 69.5801C54.9467 71.9046 50.8166 71.5433 48.4921 68.773C46.1675 66.0028 46.5289 61.8726 49.2991 59.5481C52.0694 57.2235 56.1996 57.5849 58.5241 60.3552Z" fill="url(#paint13_linear_110_3)"/>
<path d="M72.2031 76.6572C74.5277 79.4275 74.1663 83.5576 71.3961 85.8822C68.6258 88.2067 64.4956 87.8453 62.1711 85.0751C59.8466 82.3048 60.2079 78.1747 62.9782 75.8501C65.7485 73.5256 69.8786 73.8869 72.2031 76.6572Z" fill="url(#paint14_linear_110_3)"/>
<path d="M85.8822 92.9592C88.2067 95.7295 87.8454 99.8597 85.0751 102.184C82.3048 104.509 78.1747 104.147 75.8501 101.377C73.5256 98.6069 73.887 94.4767 76.6572 92.1522C79.4275 89.8276 83.5576 90.189 85.8822 92.9592Z" fill="url(#paint15_linear_110_3)"/>
<path d="M99.5612 109.261C101.886 112.032 101.524 116.162 98.7541 118.486C95.9839 120.811 91.8537 120.449 89.5292 117.679C87.2047 114.909 87.566 110.779 90.3363 108.454C93.1065 106.13 97.2367 106.491 99.5612 109.261Z" fill="url(#paint16_linear_110_3)"/>
<path d="M113.24 125.563C115.565 128.334 115.203 132.464 112.433 134.788C109.663 137.113 105.533 136.751 103.208 133.981C100.884 131.211 101.245 127.081 104.015 124.756C106.786 122.432 110.916 122.793 113.24 125.563Z" fill="url(#paint17_linear_110_3)"/>
<path d="M61.1471 30.3741C63.4716 33.1443 63.1103 37.2745 60.34 39.599C57.5698 41.9236 53.4396 41.5622 51.1151 38.7919C48.7905 36.0217 49.1519 31.8915 51.9221 29.567C54.6924 27.2425 58.8226 27.6038 61.1471 30.3741Z" fill="url(#paint18_linear_110_3)"/>
<path d="M74.8261 46.6761C77.1507 49.4464 76.7893 53.5765 74.0191 55.9011C71.2488 58.2256 67.1186 57.8643 64.7941 55.094C62.4696 52.3237 62.8309 48.1936 65.6012 45.869C68.3715 43.5445 72.5016 43.9059 74.8261 46.6761Z" fill="url(#paint19_linear_110_3)"/>
<path d="M88.5052 62.9782C90.8297 65.7484 90.4684 69.8786 87.6981 72.2031C84.9278 74.5276 80.7977 74.1663 78.4731 71.396C76.1486 68.6258 76.51 64.4956 79.2802 62.1711C82.0505 59.8466 86.1806 60.2079 88.5052 62.9782Z" fill="url(#paint20_linear_110_3)"/>
<path d="M102.184 79.2802C104.509 82.0505 104.147 86.1806 101.377 88.5052C98.6069 90.8297 94.4767 90.4684 92.1522 87.6981C89.8277 84.9278 90.189 80.7977 92.9593 78.4731C95.7295 76.1486 99.8597 76.5099 102.184 79.2802Z" fill="url(#paint21_linear_110_3)"/>
<path d="M115.863 95.5823C118.188 98.3525 117.826 102.483 115.056 104.807C112.286 107.132 108.156 106.77 105.831 104C103.507 101.23 103.868 97.0997 106.638 94.7752C109.409 92.4506 113.539 92.812 115.863 95.5823Z" fill="url(#paint22_linear_110_3)"/>
<path d="M129.542 111.884C131.867 114.655 131.505 118.785 128.735 121.109C125.965 123.434 121.835 123.072 119.51 120.302C117.186 117.532 117.547 113.402 120.317 111.077C123.088 108.753 127.218 109.114 129.542 111.884Z" fill="url(#paint23_linear_110_3)"/>
<path d="M77.4491 16.695C79.7737 19.4653 79.4123 23.5955 76.6421 25.92C73.8718 28.2445 69.7416 27.8832 67.4171 25.1129C65.0926 22.3426 65.4539 18.2125 68.2242 15.888C70.9945 13.5634 75.1246 13.9248 77.4491 16.695Z" fill="url(#paint24_linear_110_3)"/>
<path d="M91.1282 32.9971C93.4527 35.7673 93.0914 39.8975 90.3211 42.222C87.5508 44.5466 83.4207 44.1852 81.0962 41.4149C78.7716 38.6447 79.133 34.5145 81.9032 32.19C84.6735 29.8655 88.8037 30.2268 91.1282 32.9971Z" fill="url(#paint25_linear_110_3)"/>
<path d="M104.807 49.2991C107.132 52.0694 106.77 56.1995 104 58.5241C101.23 60.8486 97.0997 60.4873 94.7752 57.717C92.4507 54.9467 92.812 50.8166 95.5823 48.492C98.3525 46.1675 102.483 46.5289 104.807 49.2991Z" fill="url(#paint26_linear_110_3)"/>
<path d="M118.486 65.6012C120.811 68.3714 120.449 72.5016 117.679 74.8261C114.909 77.1507 110.779 76.7893 108.454 74.019C106.13 71.2488 106.491 67.1186 109.261 64.7941C112.032 62.4696 116.162 62.8309 118.486 65.6012Z" fill="url(#paint27_linear_110_3)"/>
<path d="M132.165 81.9032C134.49 84.6735 134.128 88.8036 131.358 91.1282C128.588 93.4527 124.458 93.0914 122.133 90.3211C119.809 87.5508 120.17 83.4207 122.94 81.0961C125.711 78.7716 129.841 79.1329 132.165 81.9032Z" fill="url(#paint28_linear_110_3)"/>
<path d="M145.844 98.2053C148.169 100.976 147.808 105.106 145.037 107.43C142.267 109.755 138.137 109.393 135.812 106.623C133.488 103.853 133.849 99.7227 136.619 97.3982C139.39 95.0737 143.52 95.435 145.844 98.2053Z" fill="url(#paint29_linear_110_3)"/>
<path d="M93.7512 3.016C96.0757 5.78627 95.7144 9.91641 92.9441 12.2409C90.1738 14.5655 86.0437 14.2041 83.7192 11.4339C81.3946 8.6636 81.756 4.53345 84.5262 2.20891C87.2965 -0.115614 91.4267 0.245729 93.7512 3.016Z" fill="url(#paint30_linear_110_3)"/>
<path d="M107.43 19.318C109.755 22.0883 109.393 26.2185 106.623 28.543C103.853 30.8675 99.7227 30.5062 97.3982 27.7359C95.0737 24.9656 95.435 20.8355 98.2053 18.511C100.976 16.1864 105.106 16.5478 107.43 19.318Z" fill="url(#paint31_linear_110_3)"/>
<path d="M121.109 35.6201C123.434 38.3904 123.072 42.5205 120.302 44.845C117.532 47.1696 113.402 46.8082 111.077 44.038C108.753 41.2677 109.114 37.1375 111.884 34.813C114.655 32.4885 118.785 32.8498 121.109 35.6201Z" fill="url(#paint32_linear_110_3)"/>
<path d="M134.788 51.9221C137.113 54.6924 136.751 58.8225 133.981 61.1471C131.211 63.4716 127.081 63.1103 124.756 60.34C122.432 57.5697 122.793 53.4396 125.563 51.1151C128.334 48.7905 132.464 49.1519 134.788 51.9221Z" fill="url(#paint33_linear_110_3)"/>
<path d="M148.467 68.2242C150.792 70.9944 150.431 75.1246 147.66 77.4491C144.89 79.7737 140.76 79.4123 138.435 76.642C136.111 73.8718 136.472 69.7416 139.242 67.4171C142.013 65.0926 146.143 65.4539 148.467 68.2242Z" fill="url(#paint34_linear_110_3)"/>
<path d="M162.146 84.5262C164.471 87.2965 164.11 91.4266 161.339 93.7512C158.569 96.0757 154.439 95.7144 152.114 92.9441C149.79 90.1738 150.151 86.0437 152.921 83.7191C155.692 81.3946 159.822 81.756 162.146 84.5262Z" fill="url(#paint35_linear_110_3)"/>
</g>
<defs>
<linearGradient id="paint0_linear_110_3" x1="99.5385" y1="9.91301" x2="91.6846" y2="166.088" gradientUnits="userSpaceOnUse">
<stop stop-color="#00B9DB"/>
<stop offset="1" stop-color="#00387C"/>
</linearGradient>
<linearGradient id="paint1_linear_110_3" x1="99.5385" y1="9.91301" x2="91.6846" y2="166.088" gradientUnits="userSpaceOnUse">
<stop stop-color="#00B9DB"/>
<stop offset="1" stop-color="#00387C"/>
</linearGradient>
<linearGradient id="paint2_linear_110_3" x1="99.5385" y1="9.91301" x2="91.6846" y2="166.088" gradientUnits="userSpaceOnUse">
<stop stop-color="#00B9DB"/>
<stop offset="1" stop-color="#00387C"/>
</linearGradient>
<linearGradient id="paint3_linear_110_3" x1="99.5385" y1="9.91301" x2="91.6846" y2="166.088" gradientUnits="userSpaceOnUse">
<stop stop-color="#00B9DB"/>
<stop offset="1" stop-color="#00387C"/>
</linearGradient>
<linearGradient id="paint4_linear_110_3" x1="99.5385" y1="9.91301" x2="91.6846" y2="166.088" gradientUnits="userSpaceOnUse">
<stop stop-color="#00B9DB"/>
<stop offset="1" stop-color="#00387C"/>
</linearGradient>
<linearGradient id="paint5_linear_110_3" x1="99.5385" y1="9.91301" x2="91.6846" y2="166.088" gradientUnits="userSpaceOnUse">
<stop stop-color="#00B9DB"/>
<stop offset="1" stop-color="#00387C"/>
</linearGradient>
<linearGradient id="paint6_linear_110_3" x1="99.5385" y1="9.91301" x2="91.6846" y2="166.088" gradientUnits="userSpaceOnUse">
<stop stop-color="#00B9DB"/>
<stop offset="1" stop-color="#00387C"/>
</linearGradient>
<linearGradient id="paint7_linear_110_3" x1="99.5385" y1="9.91301" x2="91.6846" y2="166.088" gradientUnits="userSpaceOnUse">
<stop stop-color="#00B9DB"/>
<stop offset="1" stop-color="#00387C"/>
</linearGradient>
<linearGradient id="paint8_linear_110_3" x1="99.5385" y1="9.91301" x2="91.6846" y2="166.088" gradientUnits="userSpaceOnUse">
<stop stop-color="#00B9DB"/>
<stop offset="1" stop-color="#00387C"/>
</linearGradient>
<linearGradient id="paint9_linear_110_3" x1="99.5385" y1="9.91301" x2="91.6846" y2="166.088" gradientUnits="userSpaceOnUse">
<stop stop-color="#00B9DB"/>
<stop offset="1" stop-color="#00387C"/>
</linearGradient>
<linearGradient id="paint10_linear_110_3" x1="99.5385" y1="9.91301" x2="91.6846" y2="166.088" gradientUnits="userSpaceOnUse">
<stop stop-color="#00B9DB"/>
<stop offset="1" stop-color="#00387C"/>
</linearGradient>
<linearGradient id="paint11_linear_110_3" x1="99.5385" y1="9.91301" x2="91.6846" y2="166.088" gradientUnits="userSpaceOnUse">
<stop stop-color="#00B9DB"/>
<stop offset="1" stop-color="#00387C"/>
</linearGradient>
<linearGradient id="paint12_linear_110_3" x1="99.5385" y1="9.91301" x2="91.6846" y2="166.088" gradientUnits="userSpaceOnUse">
<stop stop-color="#00B9DB"/>
<stop offset="1" stop-color="#00387C"/>
</linearGradient>
<linearGradient id="paint13_linear_110_3" x1="99.5385" y1="9.91301" x2="91.6846" y2="166.088" gradientUnits="userSpaceOnUse">
<stop stop-color="#00B9DB"/>
<stop offset="1" stop-color="#00387C"/>
</linearGradient>
<linearGradient id="paint14_linear_110_3" x1="99.5385" y1="9.91301" x2="91.6846" y2="166.088" gradientUnits="userSpaceOnUse">
<stop stop-color="#00B9DB"/>
<stop offset="1" stop-color="#00387C"/>
</linearGradient>
<linearGradient id="paint15_linear_110_3" x1="99.5385" y1="9.91301" x2="91.6846" y2="166.088" gradientUnits="userSpaceOnUse">
<stop stop-color="#00B9DB"/>
<stop offset="1" stop-color="#00387C"/>
</linearGradient>
<linearGradient id="paint16_linear_110_3" x1="99.5385" y1="9.91301" x2="91.6846" y2="166.088" gradientUnits="userSpaceOnUse">
<stop stop-color="#00B9DB"/>
<stop offset="1" stop-color="#00387C"/>
</linearGradient>
<linearGradient id="paint17_linear_110_3" x1="99.5385" y1="9.91301" x2="91.6846" y2="166.088" gradientUnits="userSpaceOnUse">
<stop stop-color="#00B9DB"/>
<stop offset="1" stop-color="#00387C"/>
</linearGradient>
<linearGradient id="paint18_linear_110_3" x1="99.5385" y1="9.91301" x2="91.6846" y2="166.088" gradientUnits="userSpaceOnUse">
<stop stop-color="#00B9DB"/>
<stop offset="1" stop-color="#00387C"/>
</linearGradient>
<linearGradient id="paint19_linear_110_3" x1="99.5385" y1="9.91301" x2="91.6846" y2="166.088" gradientUnits="userSpaceOnUse">
<stop stop-color="#00B9DB"/>
<stop offset="1" stop-color="#00387C"/>
</linearGradient>
<linearGradient id="paint20_linear_110_3" x1="99.5385" y1="9.91301" x2="91.6846" y2="166.088" gradientUnits="userSpaceOnUse">
<stop stop-color="#00B9DB"/>
<stop offset="1" stop-color="#00387C"/>
</linearGradient>
<linearGradient id="paint21_linear_110_3" x1="99.5385" y1="9.91301" x2="91.6846" y2="166.088" gradientUnits="userSpaceOnUse">
<stop stop-color="#00B9DB"/>
<stop offset="1" stop-color="#00387C"/>
</linearGradient>
<linearGradient id="paint22_linear_110_3" x1="99.5385" y1="9.91301" x2="91.6846" y2="166.088" gradientUnits="userSpaceOnUse">
<stop stop-color="#00B9DB"/>
<stop offset="1" stop-color="#00387C"/>
</linearGradient>
<linearGradient id="paint23_linear_110_3" x1="99.5385" y1="9.91301" x2="91.6846" y2="166.088" gradientUnits="userSpaceOnUse">
<stop stop-color="#00B9DB"/>
<stop offset="1" stop-color="#00387C"/>
</linearGradient>
<linearGradient id="paint24_linear_110_3" x1="99.5385" y1="9.91301" x2="91.6846" y2="166.088" gradientUnits="userSpaceOnUse">
<stop stop-color="#00B9DB"/>
<stop offset="1" stop-color="#00387C"/>
</linearGradient>
<linearGradient id="paint25_linear_110_3" x1="99.5385" y1="9.91301" x2="91.6846" y2="166.088" gradientUnits="userSpaceOnUse">
<stop stop-color="#00B9DB"/>
<stop offset="1" stop-color="#00387C"/>
</linearGradient>
<linearGradient id="paint26_linear_110_3" x1="99.5385" y1="9.91301" x2="91.6846" y2="166.088" gradientUnits="userSpaceOnUse">
<stop stop-color="#00B9DB"/>
<stop offset="1" stop-color="#00387C"/>
</linearGradient>
<linearGradient id="paint27_linear_110_3" x1="99.5385" y1="9.91301" x2="91.6846" y2="166.088" gradientUnits="userSpaceOnUse">
<stop stop-color="#00B9DB"/>
<stop offset="1" stop-color="#00387C"/>
</linearGradient>
<linearGradient id="paint28_linear_110_3" x1="99.5385" y1="9.91301" x2="91.6846" y2="166.088" gradientUnits="userSpaceOnUse">
<stop stop-color="#00B9DB"/>
<stop offset="1" stop-color="#00387C"/>
</linearGradient>
<linearGradient id="paint29_linear_110_3" x1="99.5385" y1="9.91301" x2="91.6846" y2="166.088" gradientUnits="userSpaceOnUse">
<stop stop-color="#00B9DB"/>
<stop offset="1" stop-color="#00387C"/>
</linearGradient>
<linearGradient id="paint30_linear_110_3" x1="99.5385" y1="9.91301" x2="91.6846" y2="166.088" gradientUnits="userSpaceOnUse">
<stop stop-color="#00B9DB"/>
<stop offset="1" stop-color="#00387C"/>
</linearGradient>
<linearGradient id="paint31_linear_110_3" x1="99.5385" y1="9.91301" x2="91.6846" y2="166.088" gradientUnits="userSpaceOnUse">
<stop stop-color="#00B9DB"/>
<stop offset="1" stop-color="#00387C"/>
</linearGradient>
<linearGradient id="paint32_linear_110_3" x1="99.5385" y1="9.91301" x2="91.6846" y2="166.088" gradientUnits="userSpaceOnUse">
<stop stop-color="#00B9DB"/>
<stop offset="1" stop-color="#00387C"/>
</linearGradient>
<linearGradient id="paint33_linear_110_3" x1="99.5385" y1="9.91301" x2="91.6846" y2="166.088" gradientUnits="userSpaceOnUse">
<stop stop-color="#00B9DB"/>
<stop offset="1" stop-color="#00387C"/>
</linearGradient>
<linearGradient id="paint34_linear_110_3" x1="99.5385" y1="9.91301" x2="91.6846" y2="166.088" gradientUnits="userSpaceOnUse">
<stop stop-color="#00B9DB"/>
<stop offset="1" stop-color="#00387C"/>
</linearGradient>
<linearGradient id="paint35_linear_110_3" x1="99.5385" y1="9.91301" x2="91.6846" y2="166.088" gradientUnits="userSpaceOnUse">
<stop stop-color="#00B9DB"/>
<stop offset="1" stop-color="#00387C"/>
</linearGradient>
</defs>
</svg>
