<svg width="55" height="55" viewBox="0 0 55 55" fill="none" xmlns="http://www.w3.org/2000/svg">
<path d="M54.1667 27.5C54.1667 42.4146 42.1501 54.5 27.3333 54.5C12.5166 54.5 0.5 42.4146 0.5 27.5C0.5 12.5854 12.5166 0.5 27.3333 0.5C42.1501 0.5 54.1667 12.5854 54.1667 27.5Z" stroke="white"/>
<path d="M15.3 26.7722L20.7628 21.2761C20.959 21.0456 21.3039 21.0187 21.533 21.2162C21.7621 21.4136 21.7889 21.7606 21.5926 21.9911C21.5743 22.0126 21.5544 22.0327 21.533 22.051L17.0044 26.6128H38.6315C38.9331 26.6128 39.1777 26.8589 39.1777 27.1624C39.1777 27.466 38.9331 27.712 38.6315 27.712H17.0044L21.533 32.2682C21.7621 32.4657 21.7889 32.8126 21.5926 33.0432C21.3963 33.2737 21.0515 33.3006 20.8223 33.1031C20.801 33.0847 20.781 33.0647 20.7628 33.0432L15.3 27.5471C15.0882 27.3328 15.0882 26.9866 15.3 26.7722Z" fill="white"/>
</svg>
