<svg width="25" height="13" viewBox="0 0 25 13" fill="none" xmlns="http://www.w3.org/2000/svg">
<path d="M6.1435 0.600188L6.13099 0.614886L6.11739 0.628576L0.655703 6.1236C0.655607 6.1237 0.655512 6.1238 0.655418 6.12389C0.636351 6.14351 0.636469 6.17596 0.655365 6.19537C0.655449 6.19546 0.655533 6.19554 0.655617 6.19563L6.11738 11.6907L6.13114 11.7045L6.14377 11.7194C6.14493 11.7208 6.1466 11.7225 6.14887 11.7245C6.16751 11.7404 6.19503 11.7388 6.21187 11.719C6.23012 11.6976 6.22717 11.6647 6.20664 11.647L6.192 11.6344L6.17838 11.6207L1.64977 7.06448L0.802477 6.21202H2.00439H23.6315C23.6542 6.21202 23.6777 6.19269 23.6777 6.16242C23.6777 6.1321 23.6541 6.11278 23.6315 6.11278H2.00439H0.803503L1.64956 5.26053L6.17817 0.698783L6.19203 0.684817L6.20695 0.671983C6.20823 0.670878 6.20993 0.669242 6.21187 0.666975C6.23012 0.645538 6.22717 0.61265 6.20664 0.594955L6.20659 0.594916C6.18792 0.578827 6.16031 0.580445 6.1435 0.600188Z" fill="white" stroke="white" stroke-width="0.999982"/>
</svg>
